<svg width="42" height="43" viewBox="0 0 42 43" fill="none" xmlns="http://www.w3.org/2000/svg">
<path d="M35.4167 17.3334C34.8641 17.3334 34.3342 17.5528 33.9435 17.9436C33.5528 18.3342 33.3333 18.8642 33.3333 19.4167V26.4584L30.25 23.375C29.1613 22.2949 27.6898 21.6888 26.1563 21.6888C24.6227 21.6888 23.1512 22.2949 22.0625 23.375L20.6042 24.8542L15.4375 19.6667C14.3488 18.5866 12.8773 17.9805 11.3438 17.9805C9.81015 17.9805 8.3387 18.5866 7.25 19.6667L4.16667 22.7709V11.0834C4.16667 10.5308 4.38616 10.0009 4.77686 9.61022C5.16756 9.21951 5.69747 9.00002 6.25 9.00002H22.9167C23.4692 9.00002 23.9991 8.78053 24.3898 8.38983C24.7805 7.99913 25 7.46922 25 6.91669C25 6.36415 24.7805 5.83425 24.3898 5.44355C23.9991 5.05285 23.4692 4.83335 22.9167 4.83335H6.25C4.5924 4.83335 3.00269 5.49183 1.83058 6.66394C0.658481 7.83604 0 9.42575 0 11.0834V36.5417C0.0054897 38.076 0.617444 39.546 1.7024 40.631C2.78737 41.7159 4.25731 42.3279 5.79167 42.3334H31.7083C32.2729 42.3288 32.834 42.2447 33.375 42.0834C34.578 41.7459 35.6371 41.0231 36.3897 40.0259C37.1424 39.0286 37.5471 37.8119 37.5417 36.5625V19.4167C37.5417 19.1396 37.4865 18.8652 37.3792 18.6097C37.2719 18.3542 37.1147 18.1226 36.9168 17.9286C36.7189 17.7346 36.4843 17.582 36.2267 17.4798C35.9691 17.3776 35.6937 17.3278 35.4167 17.3334ZM6.25 38.1667C5.69747 38.1667 5.16756 37.9472 4.77686 37.5565C4.38616 37.1658 4.16667 36.6359 4.16667 36.0834V28.6459L10.1875 22.625C10.492 22.3222 10.9039 22.1523 11.3333 22.1523C11.7627 22.1523 12.1747 22.3222 12.4792 22.625L28.0417 38.1667H6.25ZM33.3333 36.0834C33.32 36.4868 33.1897 36.8776 32.9583 37.2084L23.5417 27.75L25.0208 26.2917C25.1702 26.1392 25.3485 26.0181 25.5452 25.9355C25.742 25.8528 25.9533 25.8102 26.1667 25.8102C26.3801 25.8102 26.5914 25.8528 26.7881 25.9355C26.9849 26.0181 27.1631 26.1392 27.3125 26.2917L33.3333 32.3542V36.0834ZM39.5833 4.83335H37.5V2.75002C37.5 2.19749 37.2805 1.66758 36.8898 1.27688C36.4991 0.88618 35.9692 0.666687 35.4167 0.666687C34.8641 0.666687 34.3342 0.88618 33.9435 1.27688C33.5528 1.66758 33.3333 2.19749 33.3333 2.75002V4.83335H31.25C30.6975 4.83335 30.1676 5.05285 29.7769 5.44355C29.3862 5.83425 29.1667 6.36415 29.1667 6.91669C29.1667 7.46922 29.3862 7.99913 29.7769 8.38983C30.1676 8.78053 30.6975 9.00002 31.25 9.00002H33.3333V11.0834C33.3333 11.6359 33.5528 12.1658 33.9435 12.5565C34.3342 12.9472 34.8641 13.1667 35.4167 13.1667C35.9692 13.1667 36.4991 12.9472 36.8898 12.5565C37.2805 12.1658 37.5 11.6359 37.5 11.0834V9.00002H39.5833C40.1359 9.00002 40.6658 8.78053 41.0565 8.38983C41.4472 7.99913 41.6667 7.46922 41.6667 6.91669C41.6667 6.36415 41.4472 5.83425 41.0565 5.44355C40.6658 5.05285 40.1359 4.83335 39.5833 4.83335Z" fill="#6563FF"/>
</svg>
