<?xml version="1.0" ?><svg id="Layer_1" style="enable-background:new 0 0 468.023 468.023;" version="1.1" viewBox="0 0 468.023 468.023" xml:space="preserve" xmlns="http://www.w3.org/2000/svg" xmlns:xlink="http://www.w3.org/1999/xlink"><g><g><path d="M95.126,77.723l72.618,88.7c11.703-3,25.907,1.1,36.609,11.7c14.804,14.8,17.004,36.6,4.901,48.7    s-33.909,9.9-48.712-4.9c-10.903-10.9-15.004-25.7-11.503-37.5l-88.723-71.7c-11.503-9.3-12.403-26.4-1.9-36.9l0,0    C68.719,65.523,85.823,66.423,95.126,77.723z" style="fill:#FBAB68;"/><path d="M173.542,214.923c-9.651-9.648-13.972-22.353-12.409-33.327c0.392-2.753-0.738-5.502-2.9-7.249    l-84.916-68.624c-11.409-9.224-12.381-26.119-2.148-36.639c-4.668,0.888-9.131,3.118-12.752,6.739    c-10.502,10.5-9.602,27.6,1.901,36.9l88.722,71.7c-3.501,11.8,0.6,26.6,11.503,37.5c14.776,14.772,36.525,16.989,48.642,4.967    C197.69,229.457,183.903,225.281,173.542,214.923z" style="fill:#EA8E49;"/><path d="M189.381,239.593c-11.142,0-23.046-4.809-32.374-14.135    c-10.947-10.944-16.061-25.954-13.566-39.132l-86.267-69.715c-6.58-5.32-10.608-13.194-11.052-21.604    c-0.444-8.43,2.748-16.711,8.759-22.721c5.88-5.878,14.043-9.014,22.416-8.612c8.432,0.408,16.337,4.371,21.688,10.871    c0.003,0.003,0.006,0.007,0.009,0.01l70.703,86.36c13.04-2.088,27.39,2.973,38.174,13.655c7.99,7.988,12.955,18.073,13.997,28.414    c1.08,10.72-2.145,20.442-9.079,27.375C206.583,236.564,198.222,239.593,189.381,239.593z M75.807,73.638    c-5.256,0-10.144,2.01-13.855,5.721c-4.067,4.066-6.143,9.437-5.843,15.122c0.299,5.665,2.909,10.762,7.352,14.354l88.722,71.699    c1.575,1.272,2.227,3.37,1.651,5.311c-3.101,10.448,0.921,23.221,10.244,32.542c12.834,12.83,31.514,15.027,41.642,4.9    c4.771-4.77,6.974-11.625,6.2-19.3c-0.812-8.053-4.754-15.982-11.102-22.328c-9.033-8.947-21.53-13.033-31.833-10.393    c-1.881,0.483-3.877-0.17-5.11-1.676L91.26,80.895c-3.563-4.325-8.827-6.96-14.446-7.232    C76.477,73.646,76.141,73.638,75.807,73.638z" style="fill:#333333;"/></g><g><g><path d="M361.893,377.923H106.228c0,0,0,50.5,0,50.7c0,19,57.215,34.4,127.833,34.4     s127.833-15.4,127.833-34.4C361.893,428.323,361.893,377.923,361.893,377.923z" style="fill:#FBAB68;"/><path d="M124.228,397.922h237.665c0-10.661,0-20,0-20H106.228c0,0,0,50.5,0,50.7     c0,6.436,6.572,12.458,18,17.609C124.228,436.196,124.228,397.922,124.228,397.922z" style="fill:#EA8E49;"/><path d="M234.061,468.023c-34.579,0-67.145-3.639-91.697-10.247     c-26.911-7.242-41.136-17.323-41.136-29.153v-50.7c0-2.761,2.238-5,5-5h255.665c2.762,0,5,2.239,5,5v50.7     c0,11.83-14.225,21.911-41.135,29.153C301.206,464.383,268.64,468.023,234.061,468.023z M111.228,382.922v45.7     c0,4.806,8.835,12.796,33.734,19.497c23.729,6.386,55.372,9.903,89.099,9.903s65.369-3.517,89.099-9.903     c24.898-6.701,33.733-14.69,33.733-19.497v-45.7H111.228z" style="fill:#333333;"/><g><ellipse cx="234.061" cy="387.523" rx="127.833" ry="45.1" style="fill:#FFFFFF;"/><path d="M234.061,437.623c-34.697,0-67.391-4.792-92.056-13.494      c-26.296-9.277-40.777-22.278-40.777-36.606s14.481-27.329,40.777-36.606c24.665-8.702,57.358-13.494,92.056-13.494      s67.39,4.792,92.055,13.494c26.296,9.277,40.777,22.278,40.777,36.606s-14.481,27.329-40.777,36.606      C301.451,432.83,268.758,437.623,234.061,437.623z M234.061,347.422c-72.388,0-122.833,21.133-122.833,40.1      s50.445,40.1,122.833,40.1c72.387,0,122.832-21.133,122.832-40.1S306.448,347.422,234.061,347.422z" style="fill:#333333;"/></g></g><g><path d="M347.09,388.923H121.032c-22.106,0-40.01-17.9-40.01-40v-152.4H387.1v152.4     C387.1,371.023,369.195,388.923,347.09,388.923z" style="fill:#E0E0E0;"/><path d="M101.022,348.922v-152.4h-20v152.4c0,22.1,17.905,40,40.01,40h20     C118.927,388.922,101.022,371.023,101.022,348.922z" style="fill:#C9C9C9;"/><path d="M347.089,393.922H121.032c-24.818,0-45.01-20.187-45.01-45v-152.4c0-2.761,2.238-5,5-5H387.1     c2.762,0,5,2.239,5,5v152.4C392.1,373.735,371.909,393.922,347.089,393.922z M86.022,201.523v147.4c0,19.299,15.705,35,35.01,35     h226.058c19.305,0,35.011-15.701,35.011-35v-147.4H86.022z" style="fill:#333333;"/><path d="M386.2,330.623c-1.3-17.7-16.104-31.7-34.209-31.7c-7.802,0-15.004,2.6-20.805,7     c-0.1-18.8-15.404-34.1-34.309-34.1c-13.904,0-25.907,8.3-31.308,20.3c0-0.2,0-0.4,0-0.5c0-20-16.204-36.3-36.309-36.3     c-16.404,0-30.208,10.9-34.709,25.8c-6.102-5.8-14.404-9.3-23.506-9.3c-18.905,0-34.109,15.2-34.309,34.1     c-5.801-4.4-13.003-7.3-20.805-7c-31.008,1.1-35.109,31.7-35.109,31.7v18.3c0,22.1,17.905,40,40.01,40H347.09     c22.106,0,40.01-17.9,40.01-40v-18.3H386.2z" style="fill:#F7F7F7;"/><path d="M98.822,348.922v-18.3c0,0,3.327-24.719,26.527-30.514c-2.996-0.87-6.153-1.312-9.418-1.186     c-31.008,1.1-35.109,31.7-35.109,31.7v18.3c0,22.1,17.905,40,40.01,40h18C116.727,388.922,98.822,371.023,98.822,348.922z" style="fill:#EDEDED;"/><path d="M347.089,393.922H120.833c-24.819,0-45.011-20.187-45.011-45v-18.3     c0-0.222,0.015-0.444,0.044-0.664c1.613-12.031,12.024-35.044,39.888-36.033c5.786-0.219,11.529,1.032,16.95,3.663     c3.98-17.566,19.725-30.766,38.341-30.766c7.696,0,15.065,2.185,21.338,6.25c6.896-13.848,20.963-22.75,36.877-22.75     c18.341,0,33.928,12.012,39.306,28.58c7.297-7.576,17.471-12.08,28.312-12.08c18.725,0,34.487,13.222,38.386,30.812     c5.193-2.443,10.862-3.712,16.729-3.712c19.489,0,36.021,14.449,38.868,33.403c0.772,0.88,1.241,2.034,1.241,3.297v18.3     C392.1,373.735,371.909,393.922,347.089,393.922z M85.822,330.989v17.934c0,19.299,15.706,35,35.011,35h226.257     c19.305,0,35.011-15.701,35.011-35v-15.437c-0.5-0.715-0.818-1.568-0.887-2.497c-1.115-15.178-13.951-27.067-29.223-27.067     c-6.473,0-12.622,2.069-17.783,5.984c-1.508,1.143-3.533,1.339-5.233,0.5c-1.698-0.837-2.778-2.563-2.788-4.457     c-0.086-16.061-13.234-29.127-29.31-29.127c-11.504,0-22.003,6.812-26.748,17.353c-0.968,2.149-3.301,3.33-5.609,2.836     c-2.304-0.495-3.95-2.532-3.95-4.889v-0.5c0-17.259-14.045-31.3-31.31-31.3c-13.878,0-25.902,8.94-29.922,22.246     c-0.502,1.662-1.829,2.944-3.507,3.388s-3.466-0.014-4.725-1.209c-5.375-5.11-12.5-7.924-20.062-7.924     c-15.99,0-29.139,13.078-29.309,29.153c-0.021,1.889-1.104,3.606-2.8,4.437c-1.697,0.833-3.717,0.635-5.222-0.506     c-3.814-2.894-9.964-6.278-17.591-5.988C90.84,304.816,86.31,327.93,85.822,330.989z" style="fill:#333333;"/><g><ellipse cx="184.048" cy="338.323" rx="15.8" ry="15.8" style="fill:#ED4848;"/><path d="M184.048,359.123c-11.472,0-20.805-9.331-20.805-20.8s9.333-20.8,20.805-20.8      s20.804,9.331,20.804,20.8S195.52,359.123,184.048,359.123z M184.048,327.523c-5.958,0-10.805,4.845-10.805,10.8      s4.847,10.8,10.805,10.8c5.957,0,10.804-4.845,10.804-10.8S190.005,327.523,184.048,327.523z" style="fill:#333333;"/></g><g><ellipse cx="277.572" cy="338.323" rx="15.8" ry="15.8" style="fill:#ED4848;"/><path d="M277.572,359.123c-11.472,0-20.804-9.331-20.804-20.8s9.332-20.8,20.804-20.8      s20.804,9.331,20.804,20.8S289.044,359.123,277.572,359.123z M277.572,327.523c-5.957,0-10.804,4.845-10.804,10.8      s4.847,10.8,10.804,10.8s10.804-4.845,10.804-10.8S283.529,327.523,277.572,327.523z" style="fill:#333333;"/></g><g><ellipse cx="125.633" cy="248.523" rx="15.8" ry="15.8" style="fill:#9CCC65;"/><path d="M125.633,269.322c-11.472,0-20.804-9.331-20.804-20.8c0-11.469,9.332-20.8,20.804-20.8      s20.804,9.331,20.804,20.8C146.437,259.992,137.105,269.322,125.633,269.322z M125.633,237.723      c-5.957,0-10.804,4.845-10.804,10.8s4.847,10.8,10.804,10.8c5.957,0,10.804-4.845,10.804-10.8S131.59,237.723,125.633,237.723z" style="fill:#333333;"/></g><g><ellipse cx="341.788" cy="248.523" rx="15.8" ry="15.8" style="fill:#FFD766;"/><path d="M341.789,269.322c-11.472,0-20.805-9.331-20.805-20.8c0-11.469,9.333-20.8,20.805-20.8      s20.804,9.331,20.804,20.8C362.592,259.992,353.26,269.322,341.789,269.322z M341.789,237.723      c-5.958,0-10.805,4.845-10.805,10.8s4.847,10.8,10.805,10.8c5.957,0,10.804-4.845,10.804-10.8S347.746,237.723,341.789,237.723z      " style="fill:#333333;"/></g><ellipse cx="181.011" cy="338.323" rx="3" ry="4" style="fill:#CC4040;"/><ellipse cx="279.511" cy="338.323" rx="3" ry="4" style="fill:#CC4040;"/><path d="M408.005,270.723H387.1v-42.3h20.805c11.703,0,21.105,9.5,21.105,21.1l0,0     C429.111,261.223,419.608,270.723,408.005,270.723z" style="fill:#E0E0E0;"/><path d="M408.005,254.723H387.1v16h20.905c11.603,0,21.105-9.5,21.005-21.2     c0-2.796-0.557-5.464-1.55-7.912C424.325,249.302,416.767,254.723,408.005,254.723z" style="fill:#C9C9C9;"/><path d="M408.005,275.723H387.1c-2.762,0-5-2.239-5-5v-42.3c0-2.761,2.238-5,5-5h20.805     c14.395,0,26.105,11.708,26.105,26.1c0.06,6.94-2.62,13.522-7.546,18.491C421.536,272.985,414.98,275.723,408.005,275.723z      M392.1,265.723h15.905c4.287,0,8.32-1.687,11.357-4.75c3.034-3.06,4.685-7.111,4.647-11.407c0-8.92-7.225-16.143-16.105-16.143     H392.1V265.723z" style="fill:#333333;"/><path d="M60.117,270.723h20.905v-42.3H60.117c-11.703,0-21.105,9.5-21.105,21.1l0,0     C39.011,261.223,48.514,270.723,60.117,270.723z" style="fill:#E0E0E0;"/><path d="M40.59,241.532c-1.013,2.469-1.579,5.165-1.579,7.99c0,11.7,9.502,21.2,21.105,21.2h20.905v-16     H60.117C51.326,254.723,43.75,249.264,40.59,241.532z" style="fill:#C9C9C9;"/><path d="M81.022,275.723H60.117c-14.395,0-26.105-11.753-26.105-26.2c0-14.392,11.711-26.1,26.105-26.1     h20.905c2.762,0,5,2.239,5,5v42.3C86.022,273.484,83.784,275.723,81.022,275.723z M60.117,233.423     c-8.881,0-16.105,7.223-16.105,16.1c0,8.933,7.225,16.2,16.105,16.2h15.905v-32.3H60.117z" style="fill:#333333;"/></g><g><g><path d="M252.066,410.323c0,12.2-10.103,22.1-22.606,22.1c-12.503,0-22.606-9.9-22.606-22.1      s22.606-35.8,22.606-35.8S252.066,398.123,252.066,410.323z" style="fill:#80DEEA;"/><path d="M242.672,419.506c0,7.131-5.905,12.917-13.213,12.917s-13.213-5.786-13.213-12.917      s13.213-20.924,13.213-20.924S242.672,412.375,242.672,419.506z" style="fill:#74BFC8;"/><path d="M229.46,437.422c-15.222,0-27.605-12.157-27.605-27.1c0-13.523,19.988-35.075,23.995-39.258      c0.942-0.985,2.247-1.542,3.61-1.542s2.668,0.557,3.61,1.542c4.008,4.183,23.996,25.735,23.996,39.258      C257.066,425.265,244.682,437.422,229.46,437.422z M229.46,381.918c-8.236,9.335-17.605,22.307-17.605,28.404      c0,9.429,7.897,17.1,17.605,17.1s17.606-7.671,17.606-17.1C247.066,404.225,237.696,391.253,229.46,381.918z" style="fill:#333333;"/></g><g><path d="M148.939,386.923c0,11.3-9.502,20.5-21.305,20.5s-21.305-9.2-21.305-20.5      s21.305-33.2,21.305-33.2S148.939,375.623,148.939,386.923z" style="fill:#80DEEA;"/><path d="M140.846,394.926c0,7.131-5.905,12.917-13.213,12.917s-13.213-5.786-13.213-12.917      c0-7.131,13.213-20.924,13.213-20.924S140.846,387.796,140.846,394.926z" style="fill:#74BFC8;"/><path d="M127.633,412.422c-14.505,0-26.305-11.439-26.305-25.5c0-12.688,18.927-32.786,22.721-36.686      c0.941-0.968,2.234-1.514,3.584-1.514c1.35,0,2.643,0.546,3.584,1.514c3.794,3.9,22.722,23.998,22.722,36.686      C153.939,400.983,142.138,412.422,127.633,412.422z M127.635,361.062c-7.673,8.589-16.307,20.364-16.307,25.861      c0,8.547,7.314,15.5,16.305,15.5c8.991,0,16.306-6.953,16.306-15.5C143.939,381.415,135.306,369.644,127.635,361.062z" style="fill:#333333;"/></g><g><path d="M361.793,389.023c0,11.3-9.502,20.5-21.305,20.5c-11.803,0-21.305-9.2-21.305-20.5      s21.305-33.2,21.305-33.2S361.793,377.723,361.793,389.023z" style="fill:#80DEEA;"/><path d="M353.701,396.926c0,7.131-5.905,12.917-13.213,12.917c-7.308,0-13.213-5.786-13.213-12.917      c0-7.131,13.213-20.924,13.213-20.924S353.701,389.796,353.701,396.926z" style="fill:#74BFC8;"/><path d="M340.488,414.523c-14.505,0-26.306-11.439-26.306-25.5c0-12.688,18.928-32.787,22.722-36.687      c0.941-0.968,2.234-1.514,3.584-1.514s2.643,0.546,3.584,1.514c3.794,3.9,22.722,23.999,22.722,36.687      C366.794,403.083,354.993,414.523,340.488,414.523z M340.489,363.161c-7.672,8.589-16.307,20.364-16.307,25.861      c0,8.547,7.314,15.5,16.306,15.5s16.306-6.953,16.306-15.5C356.794,383.515,348.161,371.744,340.489,363.161z" style="fill:#333333;"/></g></g></g><g><g><path d="M176.513,25.613c4.86-6.79,0.023-16.264-8.326-16.45c-1.447-0.032-2.439,0.035-2.63,0.258     c-0.019-0.091-0.174-0.281-0.447-0.556c-9.139-9.211-24.686-0.554-21.903,12.117c0.258,1.176,0.477,1.911,0.636,2.04     c-0.245,0.012-0.595,0.311-1.02,0.824c-6.321,7.643,1.014,19.16,10.613,16.66c0.907-0.236,1.508-0.527,1.664-0.885l19.85,35.032     l17.826-10.483l-19.85-35.032C173.654,29.217,174.985,27.749,176.513,25.613z" style="fill:#FBE9E7;"/><path d="M174.949,79.654c-0.434,0-0.868-0.056-1.294-0.17c-1.295-0.347-2.396-1.199-3.057-2.365     l-17.792-31.401c-5.86,0.788-11.554-1.853-14.864-7.049c-3.442-5.404-3.296-11.97,0.291-17.045     c-1.518-7.784,2.122-15.515,9.154-19.346c6.662-3.629,14.325-2.861,19.975,1.874c0.325,0,0.639,0.007,0.937,0.014     c5.752,0.127,10.929,3.412,13.508,8.57c2.556,5.111,2.085,11.161-1.228,15.789c-0.417,0.583-0.843,1.161-1.284,1.713     l17.831,31.469c1.346,2.375,0.537,5.391-1.816,6.775l-17.826,10.483C176.709,79.42,175.833,79.654,174.949,79.654z M155.1,34.622     c1.794,0,3.459,0.963,4.35,2.535l17.345,30.611L186,62.355l-17.425-30.751c-0.924-1.632-0.857-3.644,0.172-5.211     c0.565-0.86,1.369-1.507,2.287-1.882c0.269-0.296,0.727-0.846,1.413-1.807c0,0,0.001,0,0.001-0.001     c1.68-2.347,0.849-4.625,0.414-5.496c-0.931-1.86-2.72-2.999-4.786-3.045c-0.431-0.009-0.728-0.006-0.926-0.001     c-0.894,0.301-1.87,0.349-2.819,0.108c-1.182-0.299-2.189-1.011-2.865-1.973c-3.08-2.981-6.8-2.596-9.295-1.237     c-2.602,1.417-5.04,4.487-4.081,8.852c0.087,0.395,0.151,0.654,0.194,0.815c0.603,1.167,0.736,2.55,0.312,3.851     c-0.371,1.133-1.121,2.067-2.085,2.676c-1.983,2.688-0.615,5.288-0.134,6.042c0.488,0.767,2.318,3.164,5.6,2.422     c0.803-0.642,1.799-1.033,2.863-1.088C154.926,34.624,155.013,34.622,155.1,34.622z" style="fill:#333333;"/></g><path d="M226.339,92.534c1.87-11.339-2.751-22.794-12.024-29.585    c-13.239-9.696-32.049-20.809-42.437-14.933c-10.377,5.869-9.975,27.346-8.033,43.423c1.367,11.314,8.988,20.893,19.668,24.874    l1.83,0.682c18.04,6.725,37.735-4.691,40.867-23.683C226.254,93.052,226.297,92.792,226.339,92.534z" style="fill:#F8BBD0;"/><path d="M200.344,107.995l-1.83-0.682c-10.68-3.981-18.301-13.561-19.668-24.874    c-1.432-11.859-2.021-26.648,1.93-35.952c-3.33-0.32-6.365,0.097-8.897,1.529c-10.377,5.869-9.975,27.346-8.033,43.423    c1.367,11.313,8.988,20.893,19.668,24.874l1.83,0.682c12.217,4.554,25.186,0.781,33.263-8.022    C212.805,110.467,206.479,110.282,200.344,107.995z" style="fill:#DAA9BA;"/><path d="M196.047,123.934c-4.194,0-8.406-0.746-12.45-2.253l-1.83-0.682    c-12.522-4.667-21.291-15.765-22.886-28.959c-3.183-26.346,0.361-42.621,10.535-48.375c10.121-5.724,26.221-0.591,47.853,15.252    c10.832,7.932,16.198,21.126,14.004,34.433c-0.001,0.003-0.001,0.006-0.002,0.008l-0.127,0.77    c-1.737,10.533-8.031,19.644-17.269,24.998C208.372,122.313,202.229,123.934,196.047,123.934z M178.752,51.372    c-1.749,0-3.229,0.327-4.411,0.996c-5.967,3.375-8.034,17.756-5.531,38.472c1.145,9.467,7.447,17.433,16.45,20.789l1.83,0.682    c7.191,2.68,15.129,2.011,21.771-1.839c6.642-3.85,11.168-10.4,12.416-17.972l0.129-0.778c1.578-9.566-2.271-19.045-10.045-24.738    C197.572,56.883,185.921,51.372,178.752,51.372z" style="fill:#333333;"/></g><g><g><path d="M343.275,63.879l-34.707,20.414l10.196,17.991l34.707-20.414c-0.044,0.388,0.331,0.94,0.998,1.598     c7.063,6.965,19.174,0.659,17.521-9.121c-0.111-0.657-0.265-1.091-0.471-1.224c0.203-0.032,0.76-0.559,1.571-1.449     c8.746-9.583-0.39-24.853-12.91-21.446c-0.374,0.102-0.604,0.189-0.665,0.258c-0.054-0.288-0.879-0.843-2.149-1.539     c-7.323-4.014-16.25,1.772-15.436,10.083C342.186,61.646,342.605,63.582,343.275,63.879z" style="fill:#FBE9E7;"/><path d="M318.764,107.284c-0.434,0-0.868-0.056-1.294-0.17c-1.294-0.347-2.396-1.199-3.056-2.364     l-10.196-17.992c-1.347-2.375-0.538-5.391,1.814-6.775l31.177-18.337c-0.106-0.699-0.186-1.414-0.256-2.127     c-0.555-5.663,2.063-11.137,6.832-14.286c4.814-3.178,10.938-3.433,15.983-0.668c0.261,0.143,0.536,0.294,0.817,0.456     c7.265-1.274,14.28,1.889,18.235,8.364c4.175,6.834,3.461,15.35-1.744,21.332c0.567,6.19-2.589,11.949-8.273,14.907     c-5.463,2.844-11.708,2.289-16.396-1.328l-31.109,18.298C320.524,107.05,319.648,107.284,318.764,107.284z M315.344,86.108     l5.265,9.291l30.327-17.838c1.633-0.96,3.669-0.916,5.259,0.116c0.894,0.581,1.56,1.417,1.933,2.373     c2.478,2.287,5.256,1.122,6.061,0.703c0.8-0.416,3.313-2.002,2.914-5.284c-0.537-1.013-0.723-2.203-0.476-3.375     c0.282-1.338,1.09-2.47,2.194-3.179c0.118-0.118,0.304-0.311,0.576-0.609c3.013-3.301,2.436-7.179,0.891-9.708     c-1.486-2.435-4.533-4.634-8.659-3.579c-1.06,0.495-2.284,0.612-3.451,0.287c-0.952-0.264-1.783-0.797-2.412-1.51     c-0.168-0.104-0.425-0.255-0.803-0.462c-1.813-0.995-3.931-0.902-5.667,0.244c-0.812,0.536-2.671,2.093-2.389,4.966     c0.115,1.177,0.236,1.882,0.32,2.273c0.608,0.785,0.98,1.748,1.04,2.776c0.106,1.872-0.842,3.646-2.457,4.596L315.344,86.108z" style="fill:#333333;"/></g><path d="M265.319,92.074c4.05-10.755,13.779-18.365,25.206-19.61c16.314-1.777,38.159-1.996,44.218,8.286    c6.052,10.271-5.034,28.67-14.755,41.622c-6.84,9.114-18.23,13.6-29.47,11.708l-1.926-0.324    c-18.985-3.196-30.334-22.93-23.551-40.944C265.134,92.565,265.227,92.318,265.319,92.074z" style="fill:#F8BBD0;"/><path d="M280.102,118.461l1.926,0.324c11.24,1.892,22.63-2.594,29.47-11.708    c7.17-9.554,15.074-22.068,16.305-32.101c3.044,1.388,5.464,3.266,6.94,5.773c6.052,10.271-5.034,28.67-14.754,41.622    c-6.841,9.114-18.23,13.6-29.47,11.708l-1.926-0.324c-12.857-2.164-22.202-11.916-24.795-23.579    C268.074,114.371,273.644,117.374,280.102,118.461z" style="fill:#DAA9BA;"/><path d="M295.684,139.513c-1.986,0-3.99-0.165-5.996-0.503l-1.927-0.324    c-10.528-1.772-19.619-8.098-24.942-17.353s-6.219-20.293-2.457-30.284l0.274-0.729c0.001-0.003,0.002-0.006,0.003-0.009    c4.753-12.621,15.997-21.364,29.345-22.818c26.654-2.902,43.164,0.701,49.066,10.718c5.934,10.07,0.865,25.938-15.063,47.162    C317.224,134.385,306.747,139.513,295.684,139.513z M270.002,93.827l-0.279,0.743c-2.706,7.187-2.063,15.123,1.766,21.778    c3.827,6.655,10.364,11.203,17.934,12.478l1.927,0.324c9.478,1.598,18.918-2.152,24.641-9.778    c12.525-16.689,17.926-30.178,14.446-36.083c-3.517-5.968-18.235-8.155-39.368-5.853    C281.491,78.478,273.419,84.758,270.002,93.827L270.002,93.827z" style="fill:#333333;"/></g><path d="M242.672,167.48c-2.762,0-5-2.239-5-5v-14.843c0-2.761,2.238-5,5-5s5,2.239,5,5v14.843   C247.672,165.241,245.434,167.48,242.672,167.48z" style="fill:#333333;"/><path d="M274.672,177.48c-2.762,0-5-2.239-5-5v-14.843c0-2.761,2.238-5,5-5s5,2.239,5,5v14.843   C279.672,175.241,277.434,177.48,274.672,177.48z" style="fill:#333333;"/></g><g/><g/><g/><g/><g/><g/><g/><g/><g/><g/><g/><g/><g/><g/><g/></svg>