<?xml version="1.0" ?><svg viewBox="0 0 64 64" xmlns="http://www.w3.org/2000/svg"><defs><style>.cls-1{fill:#eaeaea;}.cls-2{fill:#4c241d;}.cls-3{fill:none;}.cls-3,.cls-4,.cls-5,.cls-6{stroke:#4c241d;stroke-linecap:round;stroke-linejoin:round;stroke-width:2px;}.cls-4{fill:#fff;}.cls-5{fill:#ffe8dc;}.cls-6{fill:#bf7e68;}</style></defs><g id="turkey-cook"><circle class="cls-1" cx="28" cy="30" r="23"/><circle class="cls-2" cx="37" cy="13" r="1"/><line class="cls-3" x1="29" x2="32" y1="6" y2="9"/><line class="cls-3" x1="32" x2="29" y1="6" y2="9"/><circle class="cls-3" cx="16" cy="12" r="2"/><path class="cls-4" d="M50.4905,21.4164a2.4888,2.4888,0,0,0-1.4222-4.2347,2.496,2.496,0,1,0-4.5526,1.7241L38.47,24.9519,41.2981,27.78l6.0461-6.046A2.5005,2.5005,0,0,0,50.4905,21.4164Z"/><path class="cls-5" d="M42.0117,54.4949c7.1006-1.9584,11.8349-9.3355,9.8148-17.8535C50.27,30.0791,44.9089,25.1985,39.0717,25.1131c-5.0488-.0738-9.1156,3.0547-11.1091,7.5576a7.2391,7.2391,0,0,1-5.2376,4.327L12.4242,38.9151A5.84,5.84,0,0,0,7.9385,43.96h0a7.2391,7.2391,0,0,0,3.9232,7.7554C18.0538,54.4014,29.5426,57.9341,42.0117,54.4949Z"/><rect class="cls-6" height="4" width="53" x="3" y="46"/><polygon class="cls-6" points="52 50 7 50 8 58 51 58 52 50"/><path class="cls-3" d="M19.3536,24.2245a2.5789,2.5789,0,0,0-1.8924,2.3333c0,.9624,1.5911,1.2272,1.8924,2.3333a2.6453,2.6453,0,0,1-.9462,2.3334"/><path class="cls-3" d="M23.3536,18.2245a2.5789,2.5789,0,0,0-1.8924,2.3333c0,.9624,1.5911,1.2272,1.8924,2.3333a2.6453,2.6453,0,0,1-.9462,2.3334"/><path class="cls-4" d="M60.4905,23.4164a2.4888,2.4888,0,0,0-1.4222-4.2347,2.496,2.496,0,1,0-4.5526,1.7241L48.47,26.9519,51.2981,29.78l6.0461-6.046A2.5005,2.5005,0,0,0,60.4905,23.4164Z"/><path class="cls-5" d="M47.409,39.3263c3.3195-3.32,5.5251-9.3241,3.182-11.6673s-8.3478-.1375-11.6673,3.182S36.227,37.3367,38.57,39.68,44.09,42.6457,47.409,39.3263Z"/><circle class="cls-2" cx="34" cy="31" r="1"/><circle class="cls-2" cx="30" cy="37" r="1"/><circle class="cls-2" cx="31" cy="33" r="1"/><circle class="cls-2" cx="33" cy="35" r="1"/><circle class="cls-2" cx="43" cy="38" r="1"/><circle class="cls-2" cx="46" cy="37" r="1"/><line class="cls-3" x1="3" x2="57" y1="58" y2="58"/></g></svg>